<?xml version="1.0" encoding="UTF-8" standalone="no"?>
<!DOCTYPE svg PUBLIC "-//W3C//DTD SVG 1.1//EN"
 "http://www.w3.org/Graphics/SVG/1.1/DTD/svg11.dtd">
<!-- Generated by graphviz version 3.0.0 (20220315.2325)
 -->
<!-- Title: snakemake_dag Pages: 1 -->
<svg width="382pt" height="1996pt"
 viewBox="0.00 0.00 382.00 1996.00" xmlns="http://www.w3.org/2000/svg" xmlns:xlink="http://www.w3.org/1999/xlink">
<g id="graph0" class="graph" transform="scale(1 1) rotate(0) translate(4 1992)">
<title>snakemake_dag</title>
<polygon fill="white" stroke="transparent" points="-4,4 -4,-1992 378,-1992 378,4 -4,4"/>
<!-- 0 -->
<g id="node1" class="node">
<title>0</title>
<path fill="none" stroke="#d85656" stroke-width="2" d="M103,-1988C103,-1988 73,-1988 73,-1988 67,-1988 61,-1982 61,-1976 61,-1976 61,-1964 61,-1964 61,-1958 67,-1952 73,-1952 73,-1952 103,-1952 103,-1952 109,-1952 115,-1958 115,-1964 115,-1964 115,-1976 115,-1976 115,-1982 109,-1988 103,-1988"/>
<text text-anchor="middle" x="88" y="-1967.5" font-family="sans" font-size="10.00">all</text>
</g>
<!-- 1 -->
<g id="node2" class="node">
<title>1</title>
<path fill="none" stroke="#56d8a9" stroke-width="2" d="M291,-36C291,-36 225,-36 225,-36 219,-36 213,-30 213,-24 213,-24 213,-12 213,-12 213,-6 219,0 225,0 225,0 291,0 291,0 297,0 303,-6 303,-12 303,-12 303,-24 303,-24 303,-30 297,-36 291,-36"/>
<text text-anchor="middle" x="258" y="-15.5" font-family="sans" font-size="10.00">cactus_stepwise</text>
</g>
<!-- 2 -->
<g id="node3" class="node">
<title>2</title>
<path fill="none" stroke="#56d8d8" stroke-width="2" d="M284,-108C284,-108 232,-108 232,-108 226,-108 220,-102 220,-96 220,-96 220,-84 220,-84 220,-78 226,-72 232,-72 232,-72 284,-72 284,-72 290,-72 296,-78 296,-84 296,-84 296,-96 296,-96 296,-102 290,-108 284,-108"/>
<text text-anchor="middle" x="258" y="-87.5" font-family="sans" font-size="10.00">cactus_check</text>
</g>
<!-- 2&#45;&gt;1 -->
<g id="edge1" class="edge">
<title>2&#45;&gt;1</title>
<path fill="none" stroke="grey" stroke-width="2" d="M258,-71.7C258,-63.98 258,-54.71 258,-46.11"/>
<polygon fill="grey" stroke="grey" stroke-width="2" points="261.5,-46.1 258,-36.1 254.5,-46.1 261.5,-46.1"/>
</g>
<!-- 3 -->
<g id="node4" class="node">
<title>3</title>
<path fill="none" stroke="#80d856" stroke-width="2" d="M295,-180C295,-180 221,-180 221,-180 215,-180 209,-174 209,-168 209,-168 209,-156 209,-156 209,-150 215,-144 221,-144 221,-144 295,-144 295,-144 301,-144 307,-150 307,-156 307,-156 307,-168 307,-168 307,-174 301,-180 295,-180"/>
<text text-anchor="middle" x="258" y="-159.5" font-family="sans" font-size="10.00">cactus_export_hal</text>
</g>
<!-- 3&#45;&gt;2 -->
<g id="edge2" class="edge">
<title>3&#45;&gt;2</title>
<path fill="none" stroke="grey" stroke-width="2" d="M258,-143.7C258,-135.98 258,-126.71 258,-118.11"/>
<polygon fill="grey" stroke="grey" stroke-width="2" points="261.5,-118.1 258,-108.1 254.5,-118.1 261.5,-118.1"/>
</g>
<!-- 4 -->
<g id="node5" class="node">
<title>4</title>
<path fill="none" stroke="#56a9d8" stroke-width="2" d="M295,-252C295,-252 221,-252 221,-252 215,-252 209,-246 209,-240 209,-240 209,-228 209,-228 209,-222 215,-216 221,-216 221,-216 295,-216 295,-216 301,-216 307,-222 307,-228 307,-228 307,-240 307,-240 307,-246 301,-252 295,-252"/>
<text text-anchor="middle" x="258" y="-231.5" font-family="sans" font-size="10.00">round_completed</text>
</g>
<!-- 4&#45;&gt;3 -->
<g id="edge3" class="edge">
<title>4&#45;&gt;3</title>
<path fill="none" stroke="grey" stroke-width="2" d="M258,-215.7C258,-207.98 258,-198.71 258,-190.11"/>
<polygon fill="grey" stroke="grey" stroke-width="2" points="261.5,-190.1 258,-180.1 254.5,-190.1 261.5,-190.1"/>
</g>
<!-- 5 -->
<g id="node6" class="node">
<title>5</title>
<path fill="none" stroke="#5682d8" stroke-width="2" d="M256,-484C256,-484 218,-484 218,-484 212,-484 206,-478 206,-472 206,-472 206,-444 206,-444 206,-438 212,-432 218,-432 218,-432 256,-432 256,-432 262,-432 268,-438 268,-444 268,-444 268,-472 268,-472 268,-478 262,-484 256,-484"/>
<text text-anchor="middle" x="237" y="-472" font-family="sans" font-size="10.00">single_job</text>
<text text-anchor="middle" x="237" y="-461" font-family="sans" font-size="10.00">job: 1</text>
<text text-anchor="middle" x="237" y="-450" font-family="sans" font-size="10.00">nr: 5</text>
<text text-anchor="middle" x="237" y="-439" font-family="sans" font-size="10.00">step: 1</text>
</g>
<!-- 5&#45;&gt;4 -->
<g id="edge4" class="edge">
<title>5&#45;&gt;4</title>
<path fill="none" stroke="grey" stroke-width="2" d="M227.66,-431.95C216.58,-398.33 201.54,-337.13 218,-288 221.35,-278 227.42,-268.38 233.83,-260.14"/>
<polygon fill="grey" stroke="grey" stroke-width="2" points="236.56,-262.33 240.27,-252.4 231.18,-257.85 236.56,-262.33"/>
</g>
<!-- 29 -->
<g id="node30" class="node">
<title>29</title>
<path fill="none" stroke="#5682d8" stroke-width="2" d="M315,-396C315,-396 277,-396 277,-396 271,-396 265,-390 265,-384 265,-384 265,-372 265,-372 265,-366 271,-360 277,-360 277,-360 315,-360 315,-360 321,-360 327,-366 327,-372 327,-372 327,-384 327,-384 327,-390 321,-396 315,-396"/>
<text text-anchor="middle" x="296" y="-381" font-family="sans" font-size="10.00">single_job</text>
<text text-anchor="middle" x="296" y="-370" font-family="sans" font-size="10.00">step: 2</text>
</g>
<!-- 5&#45;&gt;29 -->
<g id="edge54" class="edge">
<title>5&#45;&gt;29</title>
<path fill="none" stroke="grey" stroke-width="2" d="M255.99,-431.89C262.63,-423.12 270.08,-413.26 276.74,-404.46"/>
<polygon fill="grey" stroke="grey" stroke-width="2" points="279.59,-406.5 282.83,-396.41 274.01,-402.27 279.59,-406.5"/>
</g>
<!-- 30 -->
<g id="node31" class="node">
<title>30</title>
<path fill="none" stroke="#5682d8" stroke-width="2" d="M277,-324C277,-324 239,-324 239,-324 233,-324 227,-318 227,-312 227,-312 227,-300 227,-300 227,-294 233,-288 239,-288 239,-288 277,-288 277,-288 283,-288 289,-294 289,-300 289,-300 289,-312 289,-312 289,-318 283,-324 277,-324"/>
<text text-anchor="middle" x="258" y="-309" font-family="sans" font-size="10.00">single_job</text>
<text text-anchor="middle" x="258" y="-298" font-family="sans" font-size="10.00">step: 3</text>
</g>
<!-- 5&#45;&gt;30 -->
<g id="edge56" class="edge">
<title>5&#45;&gt;30</title>
<path fill="none" stroke="grey" stroke-width="2" d="M240.51,-431.89C244.29,-404.95 250.26,-362.27 254.16,-334.45"/>
<polygon fill="grey" stroke="grey" stroke-width="2" points="257.67,-334.62 255.59,-324.23 250.74,-333.65 257.67,-334.62"/>
</g>
<!-- 6 -->
<g id="node7" class="node">
<title>6</title>
<path fill="none" stroke="#56a9d8" stroke-width="2" d="M274,-556C274,-556 200,-556 200,-556 194,-556 188,-550 188,-544 188,-544 188,-532 188,-532 188,-526 194,-520 200,-520 200,-520 274,-520 274,-520 280,-520 286,-526 286,-532 286,-532 286,-544 286,-544 286,-550 280,-556 274,-556"/>
<text text-anchor="middle" x="237" y="-535.5" font-family="sans" font-size="10.00">round_completed</text>
</g>
<!-- 6&#45;&gt;5 -->
<g id="edge7" class="edge">
<title>6&#45;&gt;5</title>
<path fill="none" stroke="grey" stroke-width="2" d="M237,-519.69C237,-512.21 237,-503.16 237,-494.36"/>
<polygon fill="grey" stroke="grey" stroke-width="2" points="240.5,-494.26 237,-484.26 233.5,-494.26 240.5,-494.26"/>
</g>
<!-- 6&#45;&gt;29 -->
<g id="edge53" class="edge">
<title>6&#45;&gt;29</title>
<path fill="none" stroke="grey" stroke-width="2" d="M253.36,-519.7C261.7,-509.94 271.27,-497.09 277,-484 287.93,-459.03 292.58,-428.08 294.55,-406.27"/>
<polygon fill="grey" stroke="grey" stroke-width="2" points="298.05,-406.31 295.33,-396.07 291.07,-405.77 298.05,-406.31"/>
</g>
<!-- 6&#45;&gt;30 -->
<g id="edge55" class="edge">
<title>6&#45;&gt;30</title>
<path fill="none" stroke="grey" stroke-width="2" d="M219.27,-519.6C210.76,-510 201.47,-497.34 197,-484 189.66,-462.09 191.8,-454.52 197,-432 205.43,-395.49 226.06,-357.31 240.99,-332.91"/>
<polygon fill="grey" stroke="grey" stroke-width="2" points="244.07,-334.59 246.4,-324.26 238.13,-330.88 244.07,-334.59"/>
</g>
<!-- 7 -->
<g id="node8" class="node">
<title>7</title>
<path fill="none" stroke="#5682d8" stroke-width="2" d="M235,-788C235,-788 197,-788 197,-788 191,-788 185,-782 185,-776 185,-776 185,-748 185,-748 185,-742 191,-736 197,-736 197,-736 235,-736 235,-736 241,-736 247,-742 247,-748 247,-748 247,-776 247,-776 247,-782 241,-788 235,-788"/>
<text text-anchor="middle" x="216" y="-776" font-family="sans" font-size="10.00">single_job</text>
<text text-anchor="middle" x="216" y="-765" font-family="sans" font-size="10.00">job: 1</text>
<text text-anchor="middle" x="216" y="-754" font-family="sans" font-size="10.00">nr: 4</text>
<text text-anchor="middle" x="216" y="-743" font-family="sans" font-size="10.00">step: 1</text>
</g>
<!-- 7&#45;&gt;6 -->
<g id="edge8" class="edge">
<title>7&#45;&gt;6</title>
<path fill="none" stroke="grey" stroke-width="2" d="M206.66,-735.95C195.58,-702.33 180.54,-641.13 197,-592 200.35,-582 206.42,-572.38 212.83,-564.14"/>
<polygon fill="grey" stroke="grey" stroke-width="2" points="215.56,-566.33 219.27,-556.4 210.18,-561.85 215.56,-566.33"/>
</g>
<!-- 27 -->
<g id="node28" class="node">
<title>27</title>
<path fill="none" stroke="#5682d8" stroke-width="2" d="M294,-700C294,-700 256,-700 256,-700 250,-700 244,-694 244,-688 244,-688 244,-676 244,-676 244,-670 250,-664 256,-664 256,-664 294,-664 294,-664 300,-664 306,-670 306,-676 306,-676 306,-688 306,-688 306,-694 300,-700 294,-700"/>
<text text-anchor="middle" x="275" y="-685" font-family="sans" font-size="10.00">single_job</text>
<text text-anchor="middle" x="275" y="-674" font-family="sans" font-size="10.00">step: 2</text>
</g>
<!-- 7&#45;&gt;27 -->
<g id="edge49" class="edge">
<title>7&#45;&gt;27</title>
<path fill="none" stroke="grey" stroke-width="2" d="M234.99,-735.89C241.63,-727.12 249.08,-717.26 255.74,-708.46"/>
<polygon fill="grey" stroke="grey" stroke-width="2" points="258.59,-710.5 261.83,-700.41 253.01,-706.27 258.59,-710.5"/>
</g>
<!-- 28 -->
<g id="node29" class="node">
<title>28</title>
<path fill="none" stroke="#5682d8" stroke-width="2" d="M256,-628C256,-628 218,-628 218,-628 212,-628 206,-622 206,-616 206,-616 206,-604 206,-604 206,-598 212,-592 218,-592 218,-592 256,-592 256,-592 262,-592 268,-598 268,-604 268,-604 268,-616 268,-616 268,-622 262,-628 256,-628"/>
<text text-anchor="middle" x="237" y="-613" font-family="sans" font-size="10.00">single_job</text>
<text text-anchor="middle" x="237" y="-602" font-family="sans" font-size="10.00">step: 3</text>
</g>
<!-- 7&#45;&gt;28 -->
<g id="edge51" class="edge">
<title>7&#45;&gt;28</title>
<path fill="none" stroke="grey" stroke-width="2" d="M219.51,-735.89C223.29,-708.95 229.26,-666.27 233.16,-638.45"/>
<polygon fill="grey" stroke="grey" stroke-width="2" points="236.67,-638.62 234.59,-628.23 229.74,-637.65 236.67,-638.62"/>
</g>
<!-- 8 -->
<g id="node9" class="node">
<title>8</title>
<path fill="none" stroke="#56a9d8" stroke-width="2" d="M253,-860C253,-860 179,-860 179,-860 173,-860 167,-854 167,-848 167,-848 167,-836 167,-836 167,-830 173,-824 179,-824 179,-824 253,-824 253,-824 259,-824 265,-830 265,-836 265,-836 265,-848 265,-848 265,-854 259,-860 253,-860"/>
<text text-anchor="middle" x="216" y="-839.5" font-family="sans" font-size="10.00">round_completed</text>
</g>
<!-- 8&#45;&gt;7 -->
<g id="edge11" class="edge">
<title>8&#45;&gt;7</title>
<path fill="none" stroke="grey" stroke-width="2" d="M216,-823.69C216,-816.21 216,-807.16 216,-798.36"/>
<polygon fill="grey" stroke="grey" stroke-width="2" points="219.5,-798.26 216,-788.26 212.5,-798.26 219.5,-798.26"/>
</g>
<!-- 8&#45;&gt;27 -->
<g id="edge48" class="edge">
<title>8&#45;&gt;27</title>
<path fill="none" stroke="grey" stroke-width="2" d="M232.36,-823.7C240.7,-813.94 250.27,-801.09 256,-788 266.93,-763.03 271.58,-732.08 273.55,-710.27"/>
<polygon fill="grey" stroke="grey" stroke-width="2" points="277.05,-710.31 274.33,-700.07 270.07,-709.77 277.05,-710.31"/>
</g>
<!-- 8&#45;&gt;28 -->
<g id="edge50" class="edge">
<title>8&#45;&gt;28</title>
<path fill="none" stroke="grey" stroke-width="2" d="M198.27,-823.6C189.76,-814 180.47,-801.34 176,-788 168.66,-766.09 170.8,-758.52 176,-736 184.43,-699.49 205.06,-661.31 219.99,-636.91"/>
<polygon fill="grey" stroke="grey" stroke-width="2" points="223.07,-638.59 225.4,-628.26 217.13,-634.88 223.07,-638.59"/>
</g>
<!-- 9 -->
<g id="node10" class="node">
<title>9</title>
<path fill="none" stroke="#5682d8" stroke-width="2" d="M214,-1092C214,-1092 176,-1092 176,-1092 170,-1092 164,-1086 164,-1080 164,-1080 164,-1052 164,-1052 164,-1046 170,-1040 176,-1040 176,-1040 214,-1040 214,-1040 220,-1040 226,-1046 226,-1052 226,-1052 226,-1080 226,-1080 226,-1086 220,-1092 214,-1092"/>
<text text-anchor="middle" x="195" y="-1080" font-family="sans" font-size="10.00">single_job</text>
<text text-anchor="middle" x="195" y="-1069" font-family="sans" font-size="10.00">job: 1</text>
<text text-anchor="middle" x="195" y="-1058" font-family="sans" font-size="10.00">nr: 3</text>
<text text-anchor="middle" x="195" y="-1047" font-family="sans" font-size="10.00">step: 1</text>
</g>
<!-- 9&#45;&gt;8 -->
<g id="edge12" class="edge">
<title>9&#45;&gt;8</title>
<path fill="none" stroke="grey" stroke-width="2" d="M185.66,-1039.95C174.58,-1006.33 159.54,-945.13 176,-896 179.35,-886 185.42,-876.38 191.83,-868.14"/>
<polygon fill="grey" stroke="grey" stroke-width="2" points="194.56,-870.33 198.27,-860.4 189.18,-865.85 194.56,-870.33"/>
</g>
<!-- 25 -->
<g id="node26" class="node">
<title>25</title>
<path fill="none" stroke="#5682d8" stroke-width="2" d="M273,-1004C273,-1004 235,-1004 235,-1004 229,-1004 223,-998 223,-992 223,-992 223,-980 223,-980 223,-974 229,-968 235,-968 235,-968 273,-968 273,-968 279,-968 285,-974 285,-980 285,-980 285,-992 285,-992 285,-998 279,-1004 273,-1004"/>
<text text-anchor="middle" x="254" y="-989" font-family="sans" font-size="10.00">single_job</text>
<text text-anchor="middle" x="254" y="-978" font-family="sans" font-size="10.00">step: 2</text>
</g>
<!-- 9&#45;&gt;25 -->
<g id="edge44" class="edge">
<title>9&#45;&gt;25</title>
<path fill="none" stroke="grey" stroke-width="2" d="M213.99,-1039.89C220.63,-1031.12 228.08,-1021.26 234.74,-1012.46"/>
<polygon fill="grey" stroke="grey" stroke-width="2" points="237.59,-1014.5 240.83,-1004.41 232.01,-1010.27 237.59,-1014.5"/>
</g>
<!-- 26 -->
<g id="node27" class="node">
<title>26</title>
<path fill="none" stroke="#5682d8" stroke-width="2" d="M235,-932C235,-932 197,-932 197,-932 191,-932 185,-926 185,-920 185,-920 185,-908 185,-908 185,-902 191,-896 197,-896 197,-896 235,-896 235,-896 241,-896 247,-902 247,-908 247,-908 247,-920 247,-920 247,-926 241,-932 235,-932"/>
<text text-anchor="middle" x="216" y="-917" font-family="sans" font-size="10.00">single_job</text>
<text text-anchor="middle" x="216" y="-906" font-family="sans" font-size="10.00">step: 3</text>
</g>
<!-- 9&#45;&gt;26 -->
<g id="edge46" class="edge">
<title>9&#45;&gt;26</title>
<path fill="none" stroke="grey" stroke-width="2" d="M198.51,-1039.89C202.29,-1012.95 208.26,-970.27 212.16,-942.45"/>
<polygon fill="grey" stroke="grey" stroke-width="2" points="215.67,-942.62 213.59,-932.23 208.74,-941.65 215.67,-942.62"/>
</g>
<!-- 10 -->
<g id="node11" class="node">
<title>10</title>
<path fill="none" stroke="#56a9d8" stroke-width="2" d="M232,-1164C232,-1164 158,-1164 158,-1164 152,-1164 146,-1158 146,-1152 146,-1152 146,-1140 146,-1140 146,-1134 152,-1128 158,-1128 158,-1128 232,-1128 232,-1128 238,-1128 244,-1134 244,-1140 244,-1140 244,-1152 244,-1152 244,-1158 238,-1164 232,-1164"/>
<text text-anchor="middle" x="195" y="-1143.5" font-family="sans" font-size="10.00">round_completed</text>
</g>
<!-- 10&#45;&gt;9 -->
<g id="edge15" class="edge">
<title>10&#45;&gt;9</title>
<path fill="none" stroke="grey" stroke-width="2" d="M195,-1127.69C195,-1120.21 195,-1111.16 195,-1102.36"/>
<polygon fill="grey" stroke="grey" stroke-width="2" points="198.5,-1102.26 195,-1092.26 191.5,-1102.26 198.5,-1102.26"/>
</g>
<!-- 10&#45;&gt;25 -->
<g id="edge43" class="edge">
<title>10&#45;&gt;25</title>
<path fill="none" stroke="grey" stroke-width="2" d="M211.36,-1127.7C219.7,-1117.94 229.27,-1105.09 235,-1092 245.93,-1067.03 250.58,-1036.08 252.55,-1014.27"/>
<polygon fill="grey" stroke="grey" stroke-width="2" points="256.05,-1014.31 253.33,-1004.07 249.07,-1013.77 256.05,-1014.31"/>
</g>
<!-- 10&#45;&gt;26 -->
<g id="edge45" class="edge">
<title>10&#45;&gt;26</title>
<path fill="none" stroke="grey" stroke-width="2" d="M177.27,-1127.6C168.76,-1118 159.47,-1105.34 155,-1092 147.66,-1070.09 149.8,-1062.52 155,-1040 163.43,-1003.49 184.06,-965.31 198.99,-940.91"/>
<polygon fill="grey" stroke="grey" stroke-width="2" points="202.07,-942.59 204.4,-932.26 196.13,-938.88 202.07,-942.59"/>
</g>
<!-- 11 -->
<g id="node12" class="node">
<title>11</title>
<path fill="none" stroke="#5682d8" stroke-width="2" d="M122,-1396C122,-1396 84,-1396 84,-1396 78,-1396 72,-1390 72,-1384 72,-1384 72,-1356 72,-1356 72,-1350 78,-1344 84,-1344 84,-1344 122,-1344 122,-1344 128,-1344 134,-1350 134,-1356 134,-1356 134,-1384 134,-1384 134,-1390 128,-1396 122,-1396"/>
<text text-anchor="middle" x="103" y="-1384" font-family="sans" font-size="10.00">single_job</text>
<text text-anchor="middle" x="103" y="-1373" font-family="sans" font-size="10.00">job: 1</text>
<text text-anchor="middle" x="103" y="-1362" font-family="sans" font-size="10.00">nr: 2</text>
<text text-anchor="middle" x="103" y="-1351" font-family="sans" font-size="10.00">step: 1</text>
</g>
<!-- 11&#45;&gt;10 -->
<g id="edge16" class="edge">
<title>11&#45;&gt;10</title>
<path fill="none" stroke="grey" stroke-width="2" d="M98.71,-1343.8C94.11,-1308.93 90.66,-1245.13 117,-1200 124.24,-1187.6 135.67,-1177.47 147.58,-1169.52"/>
<polygon fill="grey" stroke="grey" stroke-width="2" points="149.63,-1172.36 156.28,-1164.11 145.94,-1166.42 149.63,-1172.36"/>
</g>
<!-- 20 -->
<g id="node21" class="node">
<title>20</title>
<path fill="none" stroke="#5682d8" stroke-width="2" d="M50,-1308C50,-1308 12,-1308 12,-1308 6,-1308 0,-1302 0,-1296 0,-1296 0,-1284 0,-1284 0,-1278 6,-1272 12,-1272 12,-1272 50,-1272 50,-1272 56,-1272 62,-1278 62,-1284 62,-1284 62,-1296 62,-1296 62,-1302 56,-1308 50,-1308"/>
<text text-anchor="middle" x="31" y="-1293" font-family="sans" font-size="10.00">single_job</text>
<text text-anchor="middle" x="31" y="-1282" font-family="sans" font-size="10.00">step: 2</text>
</g>
<!-- 11&#45;&gt;20 -->
<g id="edge33" class="edge">
<title>11&#45;&gt;20</title>
<path fill="none" stroke="grey" stroke-width="2" d="M79.82,-1343.89C71.56,-1334.94 62.25,-1324.86 54,-1315.92"/>
<polygon fill="grey" stroke="grey" stroke-width="2" points="56.43,-1313.38 47.07,-1308.41 51.28,-1318.13 56.43,-1313.38"/>
</g>
<!-- 21 -->
<g id="node22" class="node">
<title>21</title>
<path fill="none" stroke="#5682d8" stroke-width="2" d="M176,-1236C176,-1236 138,-1236 138,-1236 132,-1236 126,-1230 126,-1224 126,-1224 126,-1212 126,-1212 126,-1206 132,-1200 138,-1200 138,-1200 176,-1200 176,-1200 182,-1200 188,-1206 188,-1212 188,-1212 188,-1224 188,-1224 188,-1230 182,-1236 176,-1236"/>
<text text-anchor="middle" x="157" y="-1221" font-family="sans" font-size="10.00">single_job</text>
<text text-anchor="middle" x="157" y="-1210" font-family="sans" font-size="10.00">step: 3</text>
</g>
<!-- 11&#45;&gt;21 -->
<g id="edge35" class="edge">
<title>11&#45;&gt;21</title>
<path fill="none" stroke="grey" stroke-width="2" d="M112.04,-1343.89C121.83,-1316.71 137.37,-1273.51 147.38,-1245.72"/>
<polygon fill="grey" stroke="grey" stroke-width="2" points="150.7,-1246.82 150.8,-1236.23 144.12,-1244.45 150.7,-1246.82"/>
</g>
<!-- 12 -->
<g id="node13" class="node">
<title>12</title>
<path fill="none" stroke="#56a9d8" stroke-width="2" d="M225,-1468C225,-1468 151,-1468 151,-1468 145,-1468 139,-1462 139,-1456 139,-1456 139,-1444 139,-1444 139,-1438 145,-1432 151,-1432 151,-1432 225,-1432 225,-1432 231,-1432 237,-1438 237,-1444 237,-1444 237,-1456 237,-1456 237,-1462 231,-1468 225,-1468"/>
<text text-anchor="middle" x="188" y="-1447.5" font-family="sans" font-size="10.00">round_completed</text>
</g>
<!-- 12&#45;&gt;11 -->
<g id="edge22" class="edge">
<title>12&#45;&gt;11</title>
<path fill="none" stroke="grey" stroke-width="2" d="M169.14,-1431.69C160,-1423.31 148.74,-1412.97 138.11,-1403.22"/>
<polygon fill="grey" stroke="grey" stroke-width="2" points="140.26,-1400.44 130.52,-1396.26 135.53,-1405.6 140.26,-1400.44"/>
</g>
<!-- 12&#45;&gt;20 -->
<g id="edge32" class="edge">
<title>12&#45;&gt;20</title>
<path fill="none" stroke="grey" stroke-width="2" d="M138.79,-1438.77C112.97,-1431.05 82.71,-1417.9 63,-1396 43.63,-1374.48 35.98,-1341.52 32.96,-1318.28"/>
<polygon fill="grey" stroke="grey" stroke-width="2" points="36.41,-1317.61 31.85,-1308.05 29.45,-1318.37 36.41,-1317.61"/>
</g>
<!-- 12&#45;&gt;21 -->
<g id="edge34" class="edge">
<title>12&#45;&gt;21</title>
<path fill="none" stroke="grey" stroke-width="2" d="M185.67,-1431.71C180.32,-1391.99 167.1,-1293.95 160.65,-1246.12"/>
<polygon fill="grey" stroke="grey" stroke-width="2" points="164.12,-1245.62 159.31,-1236.17 157.18,-1246.55 164.12,-1245.62"/>
</g>
<!-- 22 -->
<g id="node23" class="node">
<title>22</title>
<path fill="none" stroke="#5682d8" stroke-width="2" d="M293,-1396C293,-1396 255,-1396 255,-1396 249,-1396 243,-1390 243,-1384 243,-1384 243,-1356 243,-1356 243,-1350 249,-1344 255,-1344 255,-1344 293,-1344 293,-1344 299,-1344 305,-1350 305,-1356 305,-1356 305,-1384 305,-1384 305,-1390 299,-1396 293,-1396"/>
<text text-anchor="middle" x="274" y="-1384" font-family="sans" font-size="10.00">single_job</text>
<text text-anchor="middle" x="274" y="-1373" font-family="sans" font-size="10.00">job: 2</text>
<text text-anchor="middle" x="274" y="-1362" font-family="sans" font-size="10.00">nr: 2</text>
<text text-anchor="middle" x="274" y="-1351" font-family="sans" font-size="10.00">step: 1</text>
</g>
<!-- 12&#45;&gt;22 -->
<g id="edge37" class="edge">
<title>12&#45;&gt;22</title>
<path fill="none" stroke="grey" stroke-width="2" d="M207.09,-1431.69C216.32,-1423.31 227.72,-1412.97 238.48,-1403.22"/>
<polygon fill="grey" stroke="grey" stroke-width="2" points="241.1,-1405.57 246.15,-1396.26 236.39,-1400.38 241.1,-1405.57"/>
</g>
<!-- 23 -->
<g id="node24" class="node">
<title>23</title>
<path fill="none" stroke="#5682d8" stroke-width="2" d="M244,-1308C244,-1308 206,-1308 206,-1308 200,-1308 194,-1302 194,-1296 194,-1296 194,-1284 194,-1284 194,-1278 200,-1272 206,-1272 206,-1272 244,-1272 244,-1272 250,-1272 256,-1278 256,-1284 256,-1284 256,-1296 256,-1296 256,-1302 250,-1308 244,-1308"/>
<text text-anchor="middle" x="225" y="-1293" font-family="sans" font-size="10.00">single_job</text>
<text text-anchor="middle" x="225" y="-1282" font-family="sans" font-size="10.00">step: 2</text>
</g>
<!-- 12&#45;&gt;23 -->
<g id="edge38" class="edge">
<title>12&#45;&gt;23</title>
<path fill="none" stroke="grey" stroke-width="2" d="M192.03,-1431.79C198.45,-1404.37 211.06,-1350.53 218.69,-1317.96"/>
<polygon fill="grey" stroke="grey" stroke-width="2" points="222.1,-1318.72 220.97,-1308.19 215.29,-1317.13 222.1,-1318.72"/>
</g>
<!-- 24 -->
<g id="node25" class="node">
<title>24</title>
<path fill="none" stroke="#5682d8" stroke-width="2" d="M362,-1236C362,-1236 324,-1236 324,-1236 318,-1236 312,-1230 312,-1224 312,-1224 312,-1212 312,-1212 312,-1206 318,-1200 324,-1200 324,-1200 362,-1200 362,-1200 368,-1200 374,-1206 374,-1212 374,-1212 374,-1224 374,-1224 374,-1230 368,-1236 362,-1236"/>
<text text-anchor="middle" x="343" y="-1221" font-family="sans" font-size="10.00">single_job</text>
<text text-anchor="middle" x="343" y="-1210" font-family="sans" font-size="10.00">step: 3</text>
</g>
<!-- 12&#45;&gt;24 -->
<g id="edge40" class="edge">
<title>12&#45;&gt;24</title>
<path fill="none" stroke="grey" stroke-width="2" d="M237.21,-1440.31C263.94,-1433 295.27,-1419.76 314,-1396 348.21,-1352.6 348.92,-1284.3 346.14,-1246.49"/>
<polygon fill="grey" stroke="grey" stroke-width="2" points="349.61,-1245.89 345.25,-1236.24 342.63,-1246.5 349.61,-1245.89"/>
</g>
<!-- 13 -->
<g id="node14" class="node">
<title>13</title>
<path fill="none" stroke="#5682d8" stroke-width="2" d="M178,-1628C178,-1628 140,-1628 140,-1628 134,-1628 128,-1622 128,-1616 128,-1616 128,-1588 128,-1588 128,-1582 134,-1576 140,-1576 140,-1576 178,-1576 178,-1576 184,-1576 190,-1582 190,-1588 190,-1588 190,-1616 190,-1616 190,-1622 184,-1628 178,-1628"/>
<text text-anchor="middle" x="159" y="-1616" font-family="sans" font-size="10.00">single_job</text>
<text text-anchor="middle" x="159" y="-1605" font-family="sans" font-size="10.00">job: 1</text>
<text text-anchor="middle" x="159" y="-1594" font-family="sans" font-size="10.00">nr: 1</text>
<text text-anchor="middle" x="159" y="-1583" font-family="sans" font-size="10.00">step: 1</text>
</g>
<!-- 13&#45;&gt;12 -->
<g id="edge23" class="edge">
<title>13&#45;&gt;12</title>
<path fill="none" stroke="grey" stroke-width="2" d="M163.85,-1575.89C169.09,-1548.83 177.39,-1505.89 182.76,-1478.08"/>
<polygon fill="grey" stroke="grey" stroke-width="2" points="186.21,-1478.71 184.67,-1468.23 179.33,-1477.38 186.21,-1478.71"/>
</g>
<!-- 19 -->
<g id="node20" class="node">
<title>19</title>
<path fill="none" stroke="#5682d8" stroke-width="2" d="M237,-1540C237,-1540 199,-1540 199,-1540 193,-1540 187,-1534 187,-1528 187,-1528 187,-1516 187,-1516 187,-1510 193,-1504 199,-1504 199,-1504 237,-1504 237,-1504 243,-1504 249,-1510 249,-1516 249,-1516 249,-1528 249,-1528 249,-1534 243,-1540 237,-1540"/>
<text text-anchor="middle" x="218" y="-1525" font-family="sans" font-size="10.00">single_job</text>
<text text-anchor="middle" x="218" y="-1514" font-family="sans" font-size="10.00">step: 2</text>
</g>
<!-- 13&#45;&gt;19 -->
<g id="edge31" class="edge">
<title>13&#45;&gt;19</title>
<path fill="none" stroke="grey" stroke-width="2" d="M177.99,-1575.89C184.63,-1567.12 192.08,-1557.26 198.74,-1548.46"/>
<polygon fill="grey" stroke="grey" stroke-width="2" points="201.59,-1550.5 204.83,-1540.41 196.01,-1546.27 201.59,-1550.5"/>
</g>
<!-- 14 -->
<g id="node15" class="node">
<title>14</title>
<path fill="none" stroke="#d8ac56" stroke-width="2" stroke-dasharray="5,2" d="M231.5,-1700C231.5,-1700 144.5,-1700 144.5,-1700 138.5,-1700 132.5,-1694 132.5,-1688 132.5,-1688 132.5,-1676 132.5,-1676 132.5,-1670 138.5,-1664 144.5,-1664 144.5,-1664 231.5,-1664 231.5,-1664 237.5,-1664 243.5,-1670 243.5,-1676 243.5,-1676 243.5,-1688 243.5,-1688 243.5,-1694 237.5,-1700 231.5,-1700"/>
<text text-anchor="middle" x="188" y="-1679.5" font-family="sans" font-size="10.00">parse_cactus_step_2</text>
</g>
<!-- 14&#45;&gt;13 -->
<g id="edge25" class="edge">
<title>14&#45;&gt;13</title>
<path fill="none" stroke="grey" stroke-width="2" d="M181.56,-1663.69C178.72,-1656.04 175.27,-1646.76 171.93,-1637.79"/>
<polygon fill="grey" stroke="grey" stroke-width="2" points="175.16,-1636.41 168.39,-1628.26 168.59,-1638.85 175.16,-1636.41"/>
</g>
<!-- 14&#45;&gt;19 -->
<g id="edge30" class="edge">
<title>14&#45;&gt;19</title>
<path fill="none" stroke="grey" stroke-width="2" d="M191.68,-1663.84C193.87,-1653.47 196.67,-1639.99 199,-1628 204.14,-1601.55 209.57,-1571.27 213.3,-1550.04"/>
<polygon fill="grey" stroke="grey" stroke-width="2" points="216.76,-1550.57 215.04,-1540.12 209.87,-1549.37 216.76,-1550.57"/>
</g>
<!-- 15 -->
<g id="node16" class="node">
<title>15</title>
<path fill="none" stroke="#d6d856" stroke-width="2" stroke-dasharray="5,2" d="M231.5,-1772C231.5,-1772 144.5,-1772 144.5,-1772 138.5,-1772 132.5,-1766 132.5,-1760 132.5,-1760 132.5,-1748 132.5,-1748 132.5,-1742 138.5,-1736 144.5,-1736 144.5,-1736 231.5,-1736 231.5,-1736 237.5,-1736 243.5,-1742 243.5,-1748 243.5,-1748 243.5,-1760 243.5,-1760 243.5,-1766 237.5,-1772 231.5,-1772"/>
<text text-anchor="middle" x="188" y="-1751.5" font-family="sans" font-size="10.00">parse_cactus_step_1</text>
</g>
<!-- 15&#45;&gt;14 -->
<g id="edge26" class="edge">
<title>15&#45;&gt;14</title>
<path fill="none" stroke="grey" stroke-width="2" d="M188,-1735.7C188,-1727.98 188,-1718.71 188,-1710.11"/>
<polygon fill="grey" stroke="grey" stroke-width="2" points="191.5,-1710.1 188,-1700.1 184.5,-1710.1 191.5,-1710.1"/>
</g>
<!-- 16 -->
<g id="node17" class="node">
<title>16</title>
<path fill="none" stroke="#d88556" stroke-width="2" stroke-dasharray="5,2" d="M234,-1844C234,-1844 142,-1844 142,-1844 136,-1844 130,-1838 130,-1832 130,-1832 130,-1820 130,-1820 130,-1814 136,-1808 142,-1808 142,-1808 234,-1808 234,-1808 240,-1808 246,-1814 246,-1820 246,-1820 246,-1832 246,-1832 246,-1838 240,-1844 234,-1844"/>
<text text-anchor="middle" x="188" y="-1823.5" font-family="sans" font-size="10.00">stepwise_instructions</text>
</g>
<!-- 16&#45;&gt;15 -->
<g id="edge27" class="edge">
<title>16&#45;&gt;15</title>
<path fill="none" stroke="grey" stroke-width="2" d="M188,-1807.7C188,-1799.98 188,-1790.71 188,-1782.11"/>
<polygon fill="grey" stroke="grey" stroke-width="2" points="191.5,-1782.1 188,-1772.1 184.5,-1782.1 191.5,-1782.1"/>
</g>
<!-- 17 -->
<g id="node18" class="node">
<title>17</title>
<path fill="none" stroke="#afd856" stroke-width="2" stroke-dasharray="5,2" d="M219,-1916C219,-1916 157,-1916 157,-1916 151,-1916 145,-1910 145,-1904 145,-1904 145,-1892 145,-1892 145,-1886 151,-1880 157,-1880 157,-1880 219,-1880 219,-1880 225,-1880 231,-1886 231,-1892 231,-1892 231,-1904 231,-1904 231,-1910 225,-1916 219,-1916"/>
<text text-anchor="middle" x="188" y="-1895.5" font-family="sans" font-size="10.00">jobstore_setup</text>
</g>
<!-- 17&#45;&gt;16 -->
<g id="edge28" class="edge">
<title>17&#45;&gt;16</title>
<path fill="none" stroke="grey" stroke-width="2" d="M188,-1879.7C188,-1871.98 188,-1862.71 188,-1854.11"/>
<polygon fill="grey" stroke="grey" stroke-width="2" points="191.5,-1854.1 188,-1844.1 184.5,-1854.1 191.5,-1854.1"/>
</g>
<!-- 18 -->
<g id="node19" class="node">
<title>18</title>
<path fill="none" stroke="#59d856" stroke-width="2" stroke-dasharray="5,2" d="M230.5,-1988C230.5,-1988 145.5,-1988 145.5,-1988 139.5,-1988 133.5,-1982 133.5,-1976 133.5,-1976 133.5,-1964 133.5,-1964 133.5,-1958 139.5,-1952 145.5,-1952 145.5,-1952 230.5,-1952 230.5,-1952 236.5,-1952 242.5,-1958 242.5,-1964 242.5,-1964 242.5,-1976 242.5,-1976 242.5,-1982 236.5,-1988 230.5,-1988"/>
<text text-anchor="middle" x="188" y="-1967.5" font-family="sans" font-size="10.00">parse_cactus_config</text>
</g>
<!-- 18&#45;&gt;17 -->
<g id="edge29" class="edge">
<title>18&#45;&gt;17</title>
<path fill="none" stroke="grey" stroke-width="2" d="M188,-1951.7C188,-1943.98 188,-1934.71 188,-1926.11"/>
<polygon fill="grey" stroke="grey" stroke-width="2" points="191.5,-1926.1 188,-1916.1 184.5,-1926.1 191.5,-1926.1"/>
</g>
<!-- 19&#45;&gt;12 -->
<g id="edge24" class="edge">
<title>19&#45;&gt;12</title>
<path fill="none" stroke="grey" stroke-width="2" d="M210.58,-1503.7C207.21,-1495.81 203.13,-1486.3 199.38,-1477.55"/>
<polygon fill="grey" stroke="grey" stroke-width="2" points="202.49,-1475.92 195.33,-1468.1 196.05,-1478.67 202.49,-1475.92"/>
</g>
<!-- 20&#45;&gt;10 -->
<g id="edge17" class="edge">
<title>20&#45;&gt;10</title>
<path fill="none" stroke="grey" stroke-width="2" d="M35.83,-1271.79C42.14,-1252.12 54.93,-1220.06 76,-1200 92.9,-1183.91 115.52,-1172.18 136.49,-1163.91"/>
<polygon fill="grey" stroke="grey" stroke-width="2" points="137.85,-1167.13 145.98,-1160.35 135.39,-1160.58 137.85,-1167.13"/>
</g>
<!-- 20&#45;&gt;21 -->
<g id="edge36" class="edge">
<title>20&#45;&gt;21</title>
<path fill="none" stroke="grey" stroke-width="2" d="M61.82,-1271.88C78.45,-1262.64 99.16,-1251.13 117.02,-1241.21"/>
<polygon fill="grey" stroke="grey" stroke-width="2" points="119.02,-1244.11 126.06,-1236.19 115.62,-1237.99 119.02,-1244.11"/>
</g>
<!-- 21&#45;&gt;10 -->
<g id="edge18" class="edge">
<title>21&#45;&gt;10</title>
<path fill="none" stroke="grey" stroke-width="2" d="M166.39,-1199.7C170.76,-1191.64 176.06,-1181.89 180.9,-1172.98"/>
<polygon fill="grey" stroke="grey" stroke-width="2" points="184.02,-1174.56 185.71,-1164.1 177.87,-1171.22 184.02,-1174.56"/>
</g>
<!-- 22&#45;&gt;10 -->
<g id="edge19" class="edge">
<title>22&#45;&gt;10</title>
<path fill="none" stroke="grey" stroke-width="2" d="M274.5,-1343.72C274.23,-1323.81 272.33,-1295.58 265,-1272 253.49,-1234.98 230.05,-1196.71 213.47,-1172.42"/>
<polygon fill="grey" stroke="grey" stroke-width="2" points="216.29,-1170.35 207.71,-1164.14 210.54,-1174.35 216.29,-1170.35"/>
</g>
<!-- 22&#45;&gt;23 -->
<g id="edge39" class="edge">
<title>22&#45;&gt;23</title>
<path fill="none" stroke="grey" stroke-width="2" d="M258.23,-1343.89C252.83,-1335.3 246.78,-1325.67 241.34,-1317.01"/>
<polygon fill="grey" stroke="grey" stroke-width="2" points="244.22,-1315.02 235.94,-1308.41 238.29,-1318.74 244.22,-1315.02"/>
</g>
<!-- 22&#45;&gt;24 -->
<g id="edge41" class="edge">
<title>22&#45;&gt;24</title>
<path fill="none" stroke="grey" stroke-width="2" d="M285.55,-1343.89C298.11,-1316.59 318.1,-1273.14 330.88,-1245.35"/>
<polygon fill="grey" stroke="grey" stroke-width="2" points="334.08,-1246.78 335.07,-1236.23 327.72,-1243.85 334.08,-1246.78"/>
</g>
<!-- 23&#45;&gt;10 -->
<g id="edge20" class="edge">
<title>23&#45;&gt;10</title>
<path fill="none" stroke="grey" stroke-width="2" d="M221.38,-1271.87C216.25,-1247.56 206.79,-1202.82 200.71,-1174.01"/>
<polygon fill="grey" stroke="grey" stroke-width="2" points="204.12,-1173.25 198.63,-1164.19 197.27,-1174.7 204.12,-1173.25"/>
</g>
<!-- 23&#45;&gt;24 -->
<g id="edge42" class="edge">
<title>23&#45;&gt;24</title>
<path fill="none" stroke="grey" stroke-width="2" d="M253.87,-1271.88C269.29,-1262.72 288.48,-1251.34 305.1,-1241.48"/>
<polygon fill="grey" stroke="grey" stroke-width="2" points="307.21,-1244.3 314.02,-1236.19 303.64,-1238.28 307.21,-1244.3"/>
</g>
<!-- 24&#45;&gt;10 -->
<g id="edge21" class="edge">
<title>24&#45;&gt;10</title>
<path fill="none" stroke="grey" stroke-width="2" d="M311.97,-1202.33C291.26,-1192.53 263.68,-1179.48 240.5,-1168.52"/>
<polygon fill="grey" stroke="grey" stroke-width="2" points="241.74,-1165.23 231.2,-1164.12 238.74,-1171.56 241.74,-1165.23"/>
</g>
<!-- 25&#45;&gt;8 -->
<g id="edge13" class="edge">
<title>25&#45;&gt;8</title>
<path fill="none" stroke="grey" stroke-width="2" d="M257.77,-967.75C261,-949.44 264,-919.89 256,-896 252.65,-886 246.58,-876.38 240.17,-868.14"/>
<polygon fill="grey" stroke="grey" stroke-width="2" points="242.82,-865.85 233.73,-860.4 237.44,-870.33 242.82,-865.85"/>
</g>
<!-- 25&#45;&gt;26 -->
<g id="edge47" class="edge">
<title>25&#45;&gt;26</title>
<path fill="none" stroke="grey" stroke-width="2" d="M244.61,-967.7C240.24,-959.64 234.94,-949.89 230.1,-940.98"/>
<polygon fill="grey" stroke="grey" stroke-width="2" points="233.13,-939.22 225.29,-932.1 226.98,-942.56 233.13,-939.22"/>
</g>
<!-- 26&#45;&gt;8 -->
<g id="edge14" class="edge">
<title>26&#45;&gt;8</title>
<path fill="none" stroke="grey" stroke-width="2" d="M216,-895.7C216,-887.98 216,-878.71 216,-870.11"/>
<polygon fill="grey" stroke="grey" stroke-width="2" points="219.5,-870.1 216,-860.1 212.5,-870.1 219.5,-870.1"/>
</g>
<!-- 27&#45;&gt;6 -->
<g id="edge9" class="edge">
<title>27&#45;&gt;6</title>
<path fill="none" stroke="grey" stroke-width="2" d="M278.77,-663.75C282,-645.44 285,-615.89 277,-592 273.65,-582 267.58,-572.38 261.17,-564.14"/>
<polygon fill="grey" stroke="grey" stroke-width="2" points="263.82,-561.85 254.73,-556.4 258.44,-566.33 263.82,-561.85"/>
</g>
<!-- 27&#45;&gt;28 -->
<g id="edge52" class="edge">
<title>27&#45;&gt;28</title>
<path fill="none" stroke="grey" stroke-width="2" d="M265.61,-663.7C261.24,-655.64 255.94,-645.89 251.1,-636.98"/>
<polygon fill="grey" stroke="grey" stroke-width="2" points="254.13,-635.22 246.29,-628.1 247.98,-638.56 254.13,-635.22"/>
</g>
<!-- 28&#45;&gt;6 -->
<g id="edge10" class="edge">
<title>28&#45;&gt;6</title>
<path fill="none" stroke="grey" stroke-width="2" d="M237,-591.7C237,-583.98 237,-574.71 237,-566.11"/>
<polygon fill="grey" stroke="grey" stroke-width="2" points="240.5,-566.1 237,-556.1 233.5,-566.1 240.5,-566.1"/>
</g>
<!-- 29&#45;&gt;4 -->
<g id="edge5" class="edge">
<title>29&#45;&gt;4</title>
<path fill="none" stroke="grey" stroke-width="2" d="M299.77,-359.75C303,-341.44 306,-311.89 298,-288 294.65,-278 288.58,-268.38 282.17,-260.14"/>
<polygon fill="grey" stroke="grey" stroke-width="2" points="284.82,-257.85 275.73,-252.4 279.44,-262.33 284.82,-257.85"/>
</g>
<!-- 29&#45;&gt;30 -->
<g id="edge57" class="edge">
<title>29&#45;&gt;30</title>
<path fill="none" stroke="grey" stroke-width="2" d="M286.61,-359.7C282.24,-351.64 276.94,-341.89 272.1,-332.98"/>
<polygon fill="grey" stroke="grey" stroke-width="2" points="275.13,-331.22 267.29,-324.1 268.98,-334.56 275.13,-331.22"/>
</g>
<!-- 30&#45;&gt;4 -->
<g id="edge6" class="edge">
<title>30&#45;&gt;4</title>
<path fill="none" stroke="grey" stroke-width="2" d="M258,-287.7C258,-279.98 258,-270.71 258,-262.11"/>
<polygon fill="grey" stroke="grey" stroke-width="2" points="261.5,-262.1 258,-252.1 254.5,-262.1 261.5,-262.1"/>
</g>
</g>
</svg>
